<?xml version="1.0" ?><!DOCTYPE svg  PUBLIC '-//W3C//DTD SVG 1.1//EN'  'http://www.w3.org/Graphics/SVG/1.1/DTD/svg11.dtd'><svg height="512px" id="icon_design" style="enable-background:new 0 0 512 512;" version="1.1" viewBox="0 0 512 512" width="512px" xml:space="preserve" xmlns="http://www.w3.org/2000/svg" xmlns:xlink="http://www.w3.org/1999/xlink"><style type="text/css"><![CDATA[
	.st0{fill:none;}
	.st1{fill:#373737;}
]]></style><g><g><path class="st1" d="M57.868,243.853c-0.039,0-26.051-6.074-29.571-6.971c-3.847-1.031-8.224-1.3-12.649,0     c-11.599,3.5-18.194,15.697-14.722,27.305c3.49,11.618,15.706,18.193,27.304,14.723c4.542-1.36,7.888-4.194,10.528-6.952     c2.459-2.574,20.883-22.136,20.883-22.136c0.898-0.954,1.197-2.286,0.81-3.5C60.104,245.097,59.102,244.143,57.868,243.853z"/><path class="st1" d="M104.301,174.28c0.936-0.848,1.35-2.18,1.08-3.423c-0.019-0.03-5.842-26.091-6.547-29.666     c-0.761-3.896-2.42-7.955-5.524-11.378c-8.167-8.927-22.021-9.562-30.977-1.407c-8.938,8.194-9.575,22.04-1.408,30.998     c3.21,3.498,7.211,5.273,10.837,6.469c3.393,1.089,29.01,9.198,29.01,9.198C102.016,175.447,103.356,175.157,104.301,174.28z"/><path class="st1" d="M449.658,128.406c-8.947-8.155-22.802-7.52-30.987,1.407c-3.096,3.423-4.744,7.481-5.515,11.378     c-0.704,3.575-6.519,29.636-6.548,29.666c-0.259,1.243,0.155,2.575,1.081,3.423c0.954,0.877,2.284,1.167,3.528,0.791     c0,0,25.627-8.109,29.011-9.198l-0.328-1.031l0.337,1.031c3.616-1.195,7.616-2.971,10.828-6.469     C459.223,150.446,458.596,136.601,449.658,128.406z"/><path class="st1" d="M496.352,236.882c-4.417-1.3-8.802-1.031-12.64-0.028c-3.528,0.925-29.522,6.999-29.579,6.999     c-1.225,0.29-2.228,1.244-2.604,2.469c-0.366,1.214-0.059,2.546,0.829,3.5c0,0,18.415,19.541,20.897,22.133l-0.004,0.003     c2.631,2.758,5.977,5.592,10.528,6.952c11.608,3.471,23.814-3.104,27.294-14.723C514.546,252.579,507.95,240.382,496.352,236.882     z"/><path class="st1" d="M405.047,260.552l-0.867-0.366l-0.184-0.926c-9.246-51.496-45.855-95.006-95.644-113.586l-4.619-1.966     c-40.397-14.126-57.047-22.851-57.386-29.639c-0.577-1.619-0.675-2.729-0.636-3.269c-0.317-3.277,2.604-7.635,7.617-11.366     c2.352-1.698,4.839-3.153,6.7-4.089c1.91-0.975,2.846-1.272,2.778-1.272c5.776-2.228,8.668-8.726,6.44-14.453     c-1.658-4.319-5.861-7.23-10.441-7.23c-1.389,0-2.719,0.259-4.08,0.79c-1.772,0.693-8,3.289-14.78,8.35     c-10.904,8.195-16.505,18.01-16.65,29.089c-0.02,3.528,0.617,7.163,1.861,10.787c8.696,20.392,26.639,26.939,51.446,35.983     c5.979,2.179,12.235,4.454,18.85,7.134l4.628,1.967c45.517,16.99,77.287,56.788,82.966,103.85l0.953,8.06l7.974,1.59     c13.218,2.652,22.812,14.289,22.812,27.738c-0.087,15.591-12.785,28.26-28.356,28.318c-0.809,0-2.14-0.136-4.281-0.482     l-8.002-1.194l-3.654,7.21c-22.06,43.677-66.488,70.799-115.978,70.799c-49.469,0-93.907-27.122-115.967-70.77l-3.683-7.239     l-8.002,1.194c-2.122,0.347-3.472,0.482-4.262,0.482c-15.561-0.059-28.259-12.756-28.316-28.318     c-0.03-13.449,9.536-25.086,22.725-27.738l7.974-1.59l0.954-8.06c4.292-35.578,23.911-67.905,53.916-88.711l6.286-4.225     c17.856-11.955,27.652-26.957,27.633-42.229c0-5.621-1.37-11.137-3.886-15.831c-10.432-16.392-27.401-19.197-33.774-20.257     c-1.909-0.317-2.584-0.424-2.198-0.473c-0.492-0.087-0.993-0.115-1.485-0.115c-5.562,0-10.316,4.193-11.04,9.757     c-0.819,6.104,3.53,11.725,9.652,12.514c0.173,0.029,4.146,0.617,8.812,2.286c4.811,1.647,9.593,4.907,10.258,6.951     c0.839,1.532,1.281,3.259,1.281,5.168c-0.066,5.245-3.162,13.576-17.778,23.649l-6.373,4.272     c-33.157,22.984-55.304,57.135-62.285,96.213l-0.183,0.934l-0.867,0.338c-19.418,7.693-32,26.196-32,47.146     c0,27.682,21.655,49.954,49.306,50.695l0.927,0.029l0.491,0.85c27.016,46.549,77.545,75.453,131.885,75.453     c54.321,0,104.851-28.904,131.867-75.453l0.491-0.85l0.927-0.029c27.681-0.723,49.335-22.994,49.335-50.695     C437.134,286.777,424.522,268.245,405.047,260.552z"/><path class="st1" d="M162.796,328.774c0,7.984,1.977,15.773,6.787,22.013c5.053,6.787,12.408,10.971,19.708,10.971h0.443     c21.597-1.64,35.915-20.469,64.84-20.064c29.03-0.375,43.559,18.215,65.012,19.805c7.288,0.154,14.789-3.875,19.9-10.664h0.028     c4.772-6.17,6.691-13.807,6.691-21.684c-0.27-33.389-33.34-79.648-91.631-80.053     C196.358,249.502,163.056,295.155,162.796,328.774z"/><path class="st1" d="M288.029,207.641c-5.804-3.24-13.122-1.178-16.342,4.636c-3.258,5.757-1.196,13.122,4.589,16.334     c21.019,11.693,43.753,17.306,44.273,17.47c0.974,0.241,1.948,0.376,2.902,0.376c5.38,0,10.289-3.636,11.667-9.072     c1.629-6.441-2.295-12.969-8.706-14.588v-0.019C326.354,222.796,305.335,217.416,288.029,207.641z"/><path class="st1" d="M220.625,207.524c-17.567,9.332-38.933,15.253-38.933,15.329c-6.392,1.774-10.132,8.408-8.359,14.791     c1.466,5.332,6.307,8.812,11.58,8.812c1.07,0,2.15-0.135,3.22-0.425c0.434-0.192,23.091-6.362,43.724-17.297     c5.873-3.095,8.109-10.393,4.995-16.216C233.748,206.655,226.458,204.43,220.625,207.524z"/></g><rect class="st0" height="512" width="512"/></g></svg>