<?xml version="1.0" ?><!DOCTYPE svg  PUBLIC '-//W3C//DTD SVG 1.1//EN'  'http://www.w3.org/Graphics/SVG/1.1/DTD/svg11.dtd'><svg height="512px" id="icon_design" style="enable-background:new 0 0 512 512;" version="1.1" viewBox="0 0 512 512" width="512px" xml:space="preserve" xmlns="http://www.w3.org/2000/svg" xmlns:xlink="http://www.w3.org/1999/xlink"><style type="text/css"><![CDATA[
	.st0{fill:none;}
	.st1{fill:#373737;}
]]></style><g><g><path class="st1" d="M230.458,362.131c-8.068-2.97-13.196-6.001-13.248-5.94c-1.362-0.768-3.063-0.716-4.34,0.199     c-1.288,0.914-1.921,2.48-1.599,4.058c0.05,0.282,8.159,39.426,50.043,39.568c41.874-0.143,49.941-39.286,50.014-39.568     c0.279-1.577-0.312-3.144-1.599-4.058c-1.297-0.915-2.98-0.999-4.341-0.199c-0.03,0.084-20.359,11.964-44.074,11.932     C249.468,368.122,238.504,365.119,230.458,362.131z"/><path class="st1" d="M185.595,152.868l-3.821-0.146l-30.825-1.049c-2.326-0.126-4.549,1.018-5.898,2.907     c-1.34,1.89-1.651,4.34-0.852,6.479l5.597,14.598l9.396,24.524l0.736,1.973l3.126,8.16c0.81,2.171,2.698,3.802,4.952,4.31     c0.519,0.114,1.029,0.177,1.547,0.177c1.786,0,3.51-0.685,4.798-1.942l26.31-25.303c3,1.175,6.239,1.859,9.634,1.859     c10.395,0,19.312-5.991,23.693-14.702l36.693,1.308c2.315,0.095,4.546-1.026,5.887-2.906c1.349-1.891,1.671-4.371,0.852-6.511     l-2.907-7.651l-0.747-1.889l-9.377-24.525l-5.813-15.189c-0.852-2.169-2.71-3.8-4.964-4.309     c-2.284-0.488-4.672,0.167-6.343,1.795l-22.666,21.784l-2.491,2.367c-0.967-0.478-2.036-0.768-3.063-1.143     c-2.751-0.996-5.639-1.733-8.753-1.733c-9.936,0-18.355,5.648-22.924,13.737C186.799,150.843,186.05,151.756,185.595,152.868z"/><path class="st1" d="M327.088,294.31c0-11.015-8.918-19.923-19.943-19.974c-11.026,0.051-19.935,8.959-19.935,19.974     c0.032,10.996,8.908,19.906,19.935,19.906C318.14,314.216,327.088,305.306,327.088,294.31z"/><path class="st1" d="M197.669,117.006c0.28,0.914,0.779,1.631,1.204,2.431c2.451,4.474,7.009,7.31,12.034,7.31     c1.372,0,2.773-0.197,4.153-0.636c6.394-1.992,10.05-8.273,9.365-14.701c-0.083-0.913,0-1.795-0.281-2.678v-0.062     c0,0-0.457-1.433-1.121-4.828c-0.621-3.364-1.245-8.223-1.245-13.674c0.467-16.155,4.163-34.377,28.386-46.141     c6.925-3.28,9.884-11.586,6.614-18.471c-3.281-6.966-11.567-9.915-18.492-6.624c-36.101,16.789-44.748,49.931-44.292,71.235     C194.015,105.325,197.421,116.144,197.669,117.006z"/><path class="st1" d="M423.439,266.568l-0.976-0.374l-0.166-0.996c-12.428-69.305-68.597-121.321-137.704-131.029l9.884,25.862     l-0.821,0.322l0.166,0.053l0.697-0.26c0.061,0.145,0.061,0.29,0.123,0.435c55.278,13.354,98.159,58.934,105.095,116.494     l1.026,8.681l8.598,1.702c14.214,2.865,24.545,15.429,24.493,29.872c-0.021,16.789-13.705,30.493-30.475,30.525     c-0.84,0-2.293-0.146-4.65-0.552l-8.586-1.309l-3.925,7.829c-23.767,46.992-71.62,76.167-124.924,76.167     c-53.285,0-101.17-29.175-124.926-76.167l-3.924-7.829l-8.607,1.309c-2.294,0.405-3.737,0.552-4.62,0.552     c-16.799-0.032-30.473-13.736-30.505-30.525c-0.02-14.443,10.278-27.007,24.566-29.872l8.545-1.702l1.048-8.681     c2.68-22.363,10.871-42.891,23.039-60.479L135.759,190.1c-17.808,20.964-30.351,46.566-35.479,75.099l-0.145,0.996l-0.967,0.374     c-20.941,8.274-34.521,28.2-34.542,50.762c0,29.839,23.351,53.791,53.148,54.591l0.997,0.031l0.498,0.882     c29.081,50.169,83.486,81.317,142.025,81.317c58.517,0,112.94-31.148,142.013-81.317l0.52-0.882l0.997-0.031     c29.808-0.8,53.148-24.752,53.19-54.591C457.973,294.8,444.393,274.875,423.439,266.568z"/><path class="st1" d="M114.773,117.234l-0.04-0.031c8.409-3.021,15.085-4.111,20.35-4.111c11.254,0.145,16.935,4.319,21.294,8.743     c2.067,2.221,3.562,4.535,4.435,6.188c0.913,1.63,0.913,2.086,1.018,2.086c0.467,1.371,1.173,2.607,1.981,3.687     c2.628,3.509,6.77,5.597,11.142,5.597c1.506,0,3.051-0.26,4.568-0.769c6.303-2.171,9.729-8.483,8.929-14.849     c-0.114-0.943-0.051-1.889-0.384-2.832c-0.239-1.393-12.761-35.198-52.982-35.604c-9.012,0-18.96,1.796-29.872,5.804     c-7.216,2.617-10.911,10.61-8.274,17.838C99.574,116.176,107.569,119.861,114.773,117.234z"/><path class="st1" d="M235.39,294.31c0-11.015-8.94-19.923-19.945-19.974c-11.016,0.051-19.934,8.959-19.934,19.974     c0,10.996,8.918,19.906,19.934,19.906C226.449,314.216,235.39,305.306,235.39,294.31z"/></g><rect class="st0" height="512" width="512"/></g></svg>