<?xml version="1.0" ?><!DOCTYPE svg  PUBLIC '-//W3C//DTD SVG 1.1//EN'  'http://www.w3.org/Graphics/SVG/1.1/DTD/svg11.dtd'><svg height="512px" id="Layer_1" style="enable-background:new 0 0 512 512;" version="1.1" viewBox="0 0 512 512" width="512px" xml:space="preserve" xmlns="http://www.w3.org/2000/svg" xmlns:xlink="http://www.w3.org/1999/xlink"><g><path d="M411.586,117.8c0,37.847-30.688,68.526-68.528,68.526c-37.84,0-68.53-30.679-68.53-68.526   c0-37.848,30.69-68.53,68.53-68.53C380.898,49.27,411.586,79.952,411.586,117.8z" style="fill:#333333;"/><path d="M288.345,194.702l-104.06,111.37c0,0-10.762,16.001,3.402,30.816c14.161,14.812,33.497,0,33.497,0   l53.343-54.1v47.01h137.059V278.92l60.758,59.253c0,0,16.734,10.312,27.053-1.285c10.29-11.598,6.431-27.697,6.431-27.697   L400.205,194.702c0,0-4.826-4.009-21.243-4.009c-16.416,0-75.35,0-75.35,0S295.15,187.433,288.345,194.702z" style="fill:#333333;"/><g><path d="M393.897,462.73c-10.151,0-19.971-5.479-25.06-15.079c-7.317-13.819-2.047-30.964,11.782-38.289    l22.517-18.588l-2.987-0.871c-15.034-4.355,0.747-58.764,15.768-54.408l56.026,20.36c11.078,3.213,19.099,12.825,20.288,24.306    c1.177,11.478-4.729,22.529-14.922,27.931l-70.189,51.34C402.901,461.662,398.364,462.73,393.897,462.73z" style="fill:#333333;"/></g><g><path d="M293.019,462.73c10.151,0,19.972-5.479,25.062-15.079c7.302-13.819,2.046-30.964-11.783-38.289    l-22.518-18.588l2.988-0.871c15.021-4.355-0.746-58.764-15.781-54.408l-56.027,20.36c-11.078,3.213-19.099,12.825-20.274,24.306    c-1.188,11.478,4.716,22.529,14.908,27.931l70.19,51.34C284.001,461.662,288.538,462.73,293.019,462.73z" style="fill:#333333;"/></g><rect height="67.431" style="fill:#333333;" width="67.425" x="38.815" y="342.709"/><polygon points="139.598,385.713 115.38,410.14 115.38,342.709 139.598,318.285  " style="fill:#333333;"/><rect height="67.433" style="fill:#333333;" width="67.421" x="38.825" y="267.816"/><polygon points="5.464,310.821 29.681,335.249 29.681,267.816 5.464,243.39  " style="fill:#333333;"/><polygon points="12.961,238.862 70.938,238.862 99.512,258.336 34.647,258.336  " style="fill:#333333;"/><polygon points="115.38,331.967 115.38,316.23 131.189,316.23  " style="fill:#333333;"/></g></svg>